<svg xmlns:xlink="http://www.w3.org/1999/xlink" data-v-6e7f9bc6="" width="250" height="48" viewBox="0 0 250 48" fill="none" xmlns="http://www.w3.org/2000/svg"><path data-v-6e7f9bc6="" d="M36 31.441C36 40.0769 28.5238 48 17.9934 48C12.5686 48 7.91876 45.862 4.72771 42.6341C3.17777 41.083 1.94695 39.2384 1.17198 37.2681C-0.651481 32.8245 -0.469132 27.6681 2.58516 23.0148L13.5715 6.0786L14.8479 4.1083C15.0302 3.81485 15.5317 3.81485 15.714 4.1083L16.9905 6.0786L18.0845 7.75546L24.649 17.9004L28.3871 23.6856L29.4356 25.3205C29.6635 25.6559 29.8458 26.0332 30.0282 26.3686C30.8943 28.0454 31.3046 29.8061 31.3046 31.5249C31.3046 37.3939 26.6092 42.8017 19.8168 43.5983C19.5889 43.6402 19.4065 43.6402 19.1786 43.6402C18.9963 43.6402 18.8139 43.6821 18.586 43.6821C18.4037 43.6821 18.2213 43.6821 18.039 43.6821C17.8566 43.6821 17.4463 43.6821 17.4007 43.6821V41.1249V41.083L23.6461 31.1476H16.6258V37.2681C16.6258 39.6157 15.3494 41.7118 13.07 42.8437C12.1127 42.5083 11.2466 42.0472 10.426 41.5441C10.1981 41.3764 9.92457 41.2087 9.69664 41.041C7.55408 39.448 5.95855 37.2262 5.22917 34.7528C4.95565 33.8306 4.7733 32.8245 4.72771 31.8603C4.68213 29.6803 5.22917 27.4166 6.59676 25.3205L13.5259 14.6306L15.2126 11.9895V13.0376C15.2126 15.7624 14.392 18.4873 12.8877 20.8349L9.10401 26.662C8.23787 28.0454 7.73643 29.4707 7.64525 30.8961C7.59967 31.6087 7.64525 32.3214 7.73642 32.9921C8.23787 35.8009 10.1069 38.3581 12.8421 39.7834C13.298 39.1546 13.6171 38.3581 13.6627 37.5196V28.4227H26.9283V31.1057L21.0021 40.7057C25.424 39.49 28.3871 35.6751 28.3871 31.5668C28.3871 30.8542 28.2959 30.1415 28.1136 29.3869C27.8856 28.4646 27.4753 27.5843 26.9283 26.7039L26.7004 26.3266L22.0961 19.2419L18.039 12.9537L16.3522 10.3127L15.4861 8.97118C15.3949 8.80349 15.167 8.80349 15.0758 8.97118L5.04682 24.4402C3.22337 27.2489 2.63074 30.2673 2.99543 33.1598C3.17778 34.669 3.67923 36.1362 4.36303 37.4777C5.04682 38.7773 5.91296 39.993 7.00703 41.041C7.14379 41.2087 7.32614 41.3345 7.4629 41.5022C8.37463 42.2987 9.37753 43.0114 10.5172 43.5983C10.6084 43.6402 10.654 43.6821 10.7451 43.724C12.0671 44.3948 13.4803 44.8559 15.0302 45.1493C15.9876 45.317 16.9449 45.4009 17.9934 45.4009H18.039C26.8371 45.359 33.0825 38.7354 33.0825 31.5249C33.0825 29.1773 32.3987 26.7459 30.9399 24.4402L26.2445 17.1878L17.9934 4.40175L16.3067 1.7607L15.167 0C17.264 0 19.2242 1.00611 20.3183 2.68297L28.7973 15.7624L33.4927 23.0148C35.225 25.7397 36 28.6323 36 31.441Z" fill="#FFFFFF"></path> <path data-v-6e7f9bc6="" d="M62.3978 29.943C60.7673 31.5059 58.7676 32.3027 56.368 32.3027C53.9683 32.3027 51.9379 31.5059 50.3689 29.943C48.7999 28.3801 48 26.4189 48 24.1511C48 21.8834 48.7999 19.9221 50.3996 18.3592C52.0302 16.7963 54.0299 15.9995 56.4295 15.9995C58.8291 15.9995 60.8596 16.7963 62.4286 18.3592C63.9976 19.9221 64.7974 21.8834 64.7974 24.1511C64.7974 26.4495 64.0591 28.3801 62.3978 29.943ZM52.9839 27.6447C53.9068 28.6253 55.0451 29.085 56.3987 29.085C57.7524 29.085 58.9522 28.5947 59.8136 27.6447C60.675 26.7253 61.1672 25.4995 61.1672 24.0898C61.1672 22.7414 60.7058 21.5156 59.8136 20.5656C58.8907 19.585 57.7524 19.1253 56.3987 19.1253C55.0451 19.1253 53.8453 19.6156 52.9839 20.5656C52.0917 21.485 51.6302 22.7108 51.6302 24.1205C51.5995 25.4995 52.0917 26.7253 52.9839 27.6447Z" fill="#FFFFFF"></path> <path data-v-6e7f9bc6="" d="M67.3509 23.385V20.3511C67.3509 18.9108 67.6893 17.8382 68.3969 17.164C69.1045 16.4898 70.1505 16.1527 71.5349 16.1221L71.8733 17.5624C70.3043 17.7156 69.5352 18.4817 69.6583 19.7688H71.0734V23.385C71.0119 23.385 67.3509 23.385 67.3509 23.385Z" fill="#FFFFFF"></path> <path data-v-6e7f9bc6="" d="M73.9653 32.0575V29.422L82.7024 19.2785H74.2422V16.2446H87.2248V18.8495L78.4569 28.993H87.1941V32.0269H73.9653V32.0575V32.0575Z" fill="#FFFFFF"></path> <path data-v-6e7f9bc6="" d="M95.9004 32.2727C93.3162 32.2727 91.0396 31.4146 89.1322 29.7291L91.1934 27.2469C92.7316 28.534 94.3314 29.1775 95.9312 29.1775C96.6387 29.1775 97.1925 29.0549 97.6232 28.7791C98.0539 28.5033 98.2385 28.1356 98.2385 27.6453C98.2385 27.1856 98.0231 26.8178 97.5924 26.542C97.1617 26.2662 96.3003 25.9598 95.0082 25.6227C94.0853 25.4082 93.3469 25.163 92.8239 24.9485C92.3009 24.734 91.7164 24.4582 91.2549 24.0904C90.7627 23.7227 90.3628 23.263 90.1474 22.742C89.9013 22.1904 89.809 21.5162 89.809 20.7808C89.809 19.3404 90.3012 18.2066 91.3472 17.3485C92.3932 16.4598 93.7161 16.0308 95.3774 16.0308C97.5924 16.0308 99.6229 16.705 101.284 18.0227L99.4998 20.6275C97.9924 19.5856 96.6387 19.0953 95.3774 19.0953C94.7313 19.0953 94.2391 19.2179 93.8699 19.4937C93.5007 19.7695 93.3777 20.1066 93.3777 20.5356C93.3777 21.0259 93.593 21.4243 94.0237 21.6695C94.4545 21.9146 95.3774 22.2211 96.7926 22.5888C98.5154 23.0485 99.8075 23.6307 100.607 24.3356C101.438 25.0404 101.838 26.0517 101.838 27.3695C101.838 28.9017 101.346 30.1275 100.269 30.9856C99.0691 31.8436 97.654 32.2727 95.9004 32.2727Z" fill="#FFFFFF"></path> <path data-v-6e7f9bc6="" d="M111.406 32.303C109.221 32.303 107.56 31.6902 106.33 30.5256C105.13 29.3305 104.545 27.5837 104.545 25.2853V16.2144H108.022V25.1627C108.022 26.4192 108.36 27.3692 108.914 28.074C109.468 28.7789 110.36 29.0853 111.467 29.0853C112.575 29.0853 113.405 28.7482 114.021 28.1047C114.605 27.4611 114.913 26.5418 114.913 25.2853V16.2144H118.389V25.1321C118.389 27.4918 117.774 29.2385 116.543 30.4643C115.282 31.6595 113.559 32.303 111.406 32.303Z" fill="#FFFFFF"></path> <path data-v-6e7f9bc6="" d="M127.003 32.1801L120.574 16.2446H124.419L128.542 27.3688L132.664 16.2446H136.448L130.049 32.1801H127.003Z" fill="#FFFFFF"></path> <path data-v-6e7f9bc6="" d="M142.601 32.0575V19.4624H137.771V16.2446H150.938V19.4624H146.077V32.0575H142.601Z" fill="#FFFFFF"></path> <path data-v-6e7f9bc6="" d="M150.231 32.0575L157.03 16.1221H160.26L167.059 32.0575H163.429L161.983 28.5027H155.245L153.799 32.0575H150.231ZM156.476 25.4382H160.721L158.599 20.3205L156.476 25.4382Z" fill="#FFFFFF"></path> <path data-v-6e7f9bc6="" d="M166.782 23.5075L166.444 22.0672C168.013 21.914 168.782 21.1479 168.659 19.8608H167.305V16.2446H170.966V19.2785C170.966 20.7188 170.628 21.7914 169.92 22.4656C169.212 23.1398 168.166 23.4769 166.782 23.5075Z" fill="#FFFFFF"></path> <path data-v-6e7f9bc6="" d="M174.165 32.0575V16.2446H177.949L182.133 22.9559L186.317 16.2446H190.101V32.0575H186.656V21.7301L182.195 28.472H182.072L177.642 21.7608V31.9962L174.165 32.0575Z" fill="#FFFFFF"></path> <path data-v-6e7f9bc6="" d="M194.009 32.0575V16.2446H197.485V32.0575H194.009Z" fill="#FFFFFF"></path> <path data-v-6e7f9bc6="" d="M201.484 32.0575V16.2446H204.715L212.16 25.9898V16.2446H215.575V32.0575H212.59L204.899 22.0366V32.0575H201.484Z" fill="#FFFFFF"></path> <path data-v-6e7f9bc6="" d="M233.141 29.943C231.51 31.5059 229.511 32.3027 227.111 32.3027C224.711 32.3027 222.681 31.5059 221.112 29.943C219.543 28.3801 218.743 26.4189 218.743 24.1511C218.743 21.8834 219.543 19.9221 221.143 18.3592C222.773 16.7963 224.773 15.9995 227.173 15.9995C229.572 15.9995 231.603 16.7963 233.172 18.3592C234.741 19.9221 235.541 21.8834 235.541 24.1511C235.571 26.4495 234.772 28.3801 233.141 29.943ZM223.696 27.6447C224.619 28.6253 225.757 29.085 227.111 29.085C228.465 29.085 229.665 28.5947 230.526 27.6447C231.418 26.7253 231.88 25.4995 231.88 24.0898C231.88 22.7414 231.418 21.5156 230.526 20.5656C229.603 19.585 228.465 19.1253 227.111 19.1253C225.757 19.1253 224.558 19.6156 223.696 20.5656C222.804 21.485 222.343 22.7108 222.343 24.1205C222.343 25.4995 222.773 26.7253 223.696 27.6447Z" fill="#FFFFFF"></path> <path data-v-6e7f9bc6="" d="M241.663 32.0575V19.4624H236.833V16.2446H250V19.4624H245.139V32.0575H241.663Z" fill="#FFFFFF"></path></svg>